<svg width="828" height="280" viewBox="0 0 828 280" fill="none" xmlns="http://www.w3.org/2000/svg">
<rect x="113" y="18" width="602" height="241" fill="#DBE8EF"/>
<path d="M442.867 138.624L110.671 256.625L111.353 18.7193L442.867 138.624Z" fill="#0E0E9D" fill-opacity="0.26"/>
<path d="M383.529 139.035L716.335 22.7637L714.415 260.662L383.529 139.035Z" fill="#1111EA" fill-opacity="0.44"/>
<path d="M321.551 141.678H313.711V163H308.438V141.678H300.703V137.406H321.551V141.678ZM337.564 156.285C337.564 155.289 337.213 154.527 336.51 154C335.807 153.461 334.541 152.898 332.713 152.312C330.885 151.715 329.438 151.129 328.371 150.555C325.465 148.984 324.012 146.869 324.012 144.209C324.012 142.826 324.398 141.596 325.172 140.518C325.957 139.428 327.076 138.578 328.529 137.969C329.994 137.359 331.635 137.055 333.451 137.055C335.279 137.055 336.908 137.389 338.338 138.057C339.768 138.713 340.875 139.645 341.66 140.852C342.457 142.059 342.855 143.43 342.855 144.965H337.582C337.582 143.793 337.213 142.885 336.475 142.24C335.736 141.584 334.699 141.256 333.363 141.256C332.074 141.256 331.072 141.531 330.357 142.082C329.643 142.621 329.285 143.336 329.285 144.227C329.285 145.059 329.701 145.756 330.533 146.318C331.377 146.881 332.613 147.408 334.242 147.9C337.242 148.803 339.428 149.922 340.799 151.258C342.17 152.594 342.855 154.258 342.855 156.25C342.855 158.465 342.018 160.205 340.342 161.471C338.666 162.725 336.41 163.352 333.574 163.352C331.605 163.352 329.812 162.994 328.195 162.279C326.578 161.553 325.342 160.562 324.486 159.309C323.643 158.055 323.221 156.602 323.221 154.949H328.512C328.512 157.773 330.199 159.186 333.574 159.186C334.828 159.186 335.807 158.934 336.51 158.43C337.213 157.914 337.564 157.199 337.564 156.285ZM367.271 163H361.998V152.031H351.715V163H346.441V137.406H351.715V147.777H361.998V137.406H367.271V163ZM377.502 163H372.229V137.406H377.502V163ZM387.68 158.764H398.877V163H382.406V137.406H387.68V158.764ZM407.525 163H402.252V137.406H407.525V163ZM412.43 163V137.406H420.305C422.555 137.406 424.564 137.916 426.334 138.936C428.115 139.943 429.504 141.385 430.5 143.26C431.496 145.123 431.994 147.244 431.994 149.623V150.801C431.994 153.18 431.502 155.295 430.518 157.146C429.545 158.998 428.168 160.434 426.387 161.453C424.605 162.473 422.596 162.988 420.357 163H412.43ZM417.703 141.678V158.764H420.252C422.314 158.764 423.891 158.09 424.98 156.742C426.07 155.395 426.627 153.467 426.65 150.959V149.605C426.65 147.004 426.111 145.035 425.033 143.699C423.955 142.352 422.379 141.678 420.305 141.678H417.703ZM441.012 158.764H453.914V163H434.42V159.906L447.076 141.678H434.438V137.406H453.633V140.43L441.012 158.764ZM462.861 163H457.588V137.406H462.861V163ZM486.205 153.631H482.004V163H476.73V137.406H486.24C489.264 137.406 491.596 138.08 493.236 139.428C494.877 140.775 495.697 142.68 495.697 145.141C495.697 146.887 495.316 148.346 494.555 149.518C493.805 150.678 492.662 151.604 491.127 152.295L496.664 162.754V163H491.004L486.205 153.631ZM482.004 149.359H486.258C487.582 149.359 488.607 149.025 489.334 148.357C490.061 147.678 490.424 146.746 490.424 145.562C490.424 144.355 490.078 143.406 489.387 142.715C488.707 142.023 487.658 141.678 486.24 141.678H482.004V149.359ZM514.172 157.727H504.926L503.168 163H497.561L507.088 137.406H511.975L521.555 163H515.947L514.172 157.727ZM506.35 153.455H512.748L509.531 143.875L506.35 153.455ZM530.836 137.406L537.41 155.969L543.949 137.406H550.875V163H545.584V156.004L546.111 143.928L539.203 163H535.582L528.691 143.945L529.219 156.004V163H523.945V137.406H530.836ZM555.48 163V137.406H564.445C567.551 137.406 569.906 138.004 571.512 139.199C573.117 140.383 573.92 142.123 573.92 144.42C573.92 145.674 573.598 146.781 572.953 147.742C572.309 148.691 571.412 149.389 570.264 149.834C571.576 150.162 572.607 150.824 573.357 151.82C574.119 152.816 574.5 154.035 574.5 155.477C574.5 157.938 573.715 159.801 572.145 161.066C570.574 162.332 568.336 162.977 565.43 163H555.48ZM560.754 151.855V158.764H565.271C566.514 158.764 567.48 158.471 568.172 157.885C568.875 157.287 569.227 156.467 569.227 155.424C569.227 153.08 568.014 151.891 565.588 151.855H560.754ZM560.754 148.129H564.656C567.316 148.082 568.646 147.021 568.646 144.947C568.646 143.787 568.307 142.955 567.627 142.451C566.959 141.936 565.898 141.678 564.445 141.678H560.754V148.129ZM597.844 137.406V154.264C597.844 157.064 596.965 159.279 595.207 160.908C593.461 162.537 591.07 163.352 588.035 163.352C585.047 163.352 582.674 162.561 580.916 160.979C579.158 159.396 578.262 157.223 578.227 154.457V137.406H583.5V154.299C583.5 155.975 583.898 157.199 584.695 157.973C585.504 158.734 586.617 159.115 588.035 159.115C591 159.115 592.506 157.557 592.553 154.439V137.406H597.844ZM602.168 163V137.406H610.043C612.293 137.406 614.303 137.916 616.072 138.936C617.854 139.943 619.242 141.385 620.238 143.26C621.234 145.123 621.732 147.244 621.732 149.623V150.801C621.732 153.18 621.24 155.295 620.256 157.146C619.283 158.998 617.906 160.434 616.125 161.453C614.344 162.473 612.334 162.988 610.096 163H602.168ZM607.441 141.678V158.764H609.99C612.053 158.764 613.629 158.09 614.719 156.742C615.809 155.395 616.365 153.467 616.389 150.959V149.605C616.389 147.004 615.85 145.035 614.771 143.699C613.693 142.352 612.117 141.678 610.043 141.678H607.441ZM639.645 157.727H630.398L628.641 163H623.033L632.561 137.406H637.447L647.027 163H641.42L639.645 157.727ZM631.822 153.455H638.221L635.004 143.875L631.822 153.455Z" fill="black"/>
<rect x="265.821" y="241.382" width="169.794" height="39.4807" transform="rotate(-133.473 265.821 241.382)" fill="#6B6BEB" fill-opacity="0.69"/>
<rect x="129" y="39" width="58" height="158" fill="#6B6BEB"/>
<ellipse cx="198" cy="95" rx="69" ry="56" fill="#6B6BEB"/>
<rect x="153" y="134" width="138" height="40" fill="#040404"/>
<rect x="197.16" y="144" width="51.06" height="100" fill="#040404"/>
</svg>
