<svg id="Layer_1" data-name="Layer 1" xmlns="http://www.w3.org/2000/svg" viewBox="0 0 1176 884.23"><defs><style>.cls-1{fill:rgb(150 150 247 / 54%);}</style></defs><path class="cls-1" d="M384.65,149.22c18-13.62,54.7-37.5,106.52-44.35,69.49-9.19,158.14,13.32,205.23,81.31,55.65,80.34,33,194.88-44.16,256.26-86.41,68.71-233.67,63.42-304-29.57C289.51,335.12,302.5,219.78,384.65,149.22Z" transform="translate(-312 -102.91)"/><path class="cls-1" d="M1427.94,635.21c-38.27,96.14-89.79,225.61-227.52,300.37-174.48,94.71-383.35,45.22-507.77-38.23,0,0-109.16-73.2-169.25-198.43-19.25-40.1-25.48-69.08-25.9-96.48-.8-51.76,19.24-89.1,38.84-125.62C584,388,652,346.59,665.83,338.47c9.6-5.66,18-10,27.74-14.57,11.42-5.41,130.37-61.06,255.27-80.1,108.09-16.47,425.91-64.92,516.09,83.75C1516.53,412.6,1471.51,525.73,1427.94,635.21Z" transform="translate(-312 -102.91)"/></svg>